<svg id="Capa_1" enable-background="new 0 0 497 497" height="512" viewBox="0 0 497 497" width="512" xmlns="http://www.w3.org/2000/svg"><g><path d="m444.29 36.32v154.4h-41.92v-154.4c0-7.76 4.22-14.54 10.49-18.15 3.08-1.79 6.66-2.81 10.47-2.81 11.58 0 20.96 9.38 20.96 20.96z" fill="#ffcebf"/><path d="m444.29 36.32v154.4c-11.576 0-20.96-9.384-20.96-20.96v-133.44c0-7.76-4.21-14.52-10.47-18.15 3.371-1.959 7.341-2.996 11.556-2.783 11.226.569 19.874 9.863 19.874 20.933z" fill="#ffb09e"/><path d="m402.37 20.96v169.76h-41.92v-169.76c0-7.98 4.46-14.92 11.03-18.45 2.96-1.61 6.34-2.51 9.93-2.51 11.58 0 20.96 9.38 20.96 20.96z" fill="#ffcebf"/><path d="m381.41 0c-3.59 0-6.97.9-9.93 2.51 6.56 3.54 11.01 10.47 11.01 18.45v169.76h19.88v-169.76c0-11.58-9.38-20.96-20.96-20.96z" fill="#ffb09e"/><path d="m360.45 36.32v154.4h-41.92v-154.4c0-7.76 4.22-14.54 10.49-18.15 3.08-1.79 6.66-2.81 10.47-2.81 11.58 0 20.96 9.38 20.96 20.96z" fill="#ffcebf"/><path d="m339.49 15.36c-3.81 0-7.39 1.02-10.47 2.81 6.26 3.63 10.47 10.39 10.47 18.15v154.4h20.96v-154.4c0-11.58-9.38-20.96-20.96-20.96z" fill="#ffb09e"/><path d="m318.53 65.45v125.27h-41.92v-125.27c0-7.76 4.22-14.53 10.49-18.14 3.08-1.79 6.66-2.81 10.47-2.81 11.58 0 20.96 9.38 20.96 20.95z" fill="#ffcebf"/><path d="m297.57 44.5c-3.81 0-7.39 1.02-10.47 2.81 6.27 3.62 10.48 10.39 10.48 18.14v125.27h20.95v-125.27c0-11.57-9.38-20.95-20.96-20.95z" fill="#ffb09e"/><path d="m220.38 190.72v265.71h-167.68v-58.21c0-14.85-4.78-29.31-13.62-41.24l-23.33-31.45c-4.61-6.22-7.11-13.77-7.11-21.52v-113.29z" fill="#ffcebf"/><path d="m192.38 190.72h28v265.71h-28z" fill="#ffb09e"/><path d="m94.62 36.32v154.4h-41.92v-154.4c0-7.76 4.22-14.53 10.48-18.15 3.08-1.79 6.66-2.81 10.48-2.81 11.58 0 20.96 9.38 20.96 20.96z" fill="#ffcebf"/><path d="m94.62 36.32v154.4c-11.576 0-20.96-9.384-20.96-20.96v-133.44c0-7.76-4.21-14.53-10.48-18.15 3.043-1.768 6.573-2.785 10.342-2.81 11.605-.075 21.098 9.354 21.098 20.96z" fill="#ffb09e"/><path d="m136.54 20.96v169.76h-41.92v-169.76c0-7.76 4.22-14.53 10.48-18.15 3.08-1.79 6.66-2.81 10.48-2.81 11.58 0 20.96 9.38 20.96 20.96z" fill="#ffcebf"/><path d="m115.58 0c-3.82 0-7.4 1.02-10.48 2.81 6.27 3.62 10.48 10.39 10.48 18.15v169.76h20.96v-169.76c0-11.58-9.38-20.96-20.96-20.96z" fill="#ffb09e"/><path d="m178.46 36.32v154.4h-41.92v-154.4c0-7.76 4.22-14.53 10.48-18.15 3.08-1.79 6.66-2.81 10.48-2.81 11.58 0 20.96 9.38 20.96 20.96z" fill="#ffcebf"/><path d="m157.5 15.36c-3.82 0-7.4 1.02-10.48 2.81 6.27 3.62 10.48 10.39 10.48 18.15v154.4h20.96v-154.4c0-11.58-9.38-20.96-20.96-20.96z" fill="#ffb09e"/><path d="m220.38 65.45v125.27h-41.92v-125.27c0-7.75 4.22-14.52 10.48-18.14 3.08-1.79 6.66-2.81 10.48-2.81 11.58 0 20.96 9.38 20.96 20.95z" fill="#ffcebf"/><path d="m199.42 44.5c-3.82 0-7.4 1.02-10.48 2.81 6.27 3.62 10.48 10.39 10.48 18.14v125.27h20.96v-125.27c0-11.57-9.38-20.95-20.96-20.95z" fill="#ffb09e"/><path d="m77.21 297.43h-68.57v-143.98c0-8.97 4.85-16.8 12.07-21.01 3.6-2.12 7.79-3.32 12.26-3.32 6.08 0 11.69 2.24 15.99 6 4.3 3.75 7.29 9 8.11 15.03z" fill="#ffcebf"/><path d="m63.295 297.43c-6.07 0-11.208-4.483-12.03-10.497l-18.705-136.783c-.83-6.03-3.81-11.28-8.11-15.03-1.16-1.01-2.41-1.91-3.74-2.68 3.6-2.12 7.79-3.32 12.26-3.32 6.08 0 11.69 2.24 15.99 6 4.3 3.75 7.29 9 8.11 15.03l18.255 133.493c.997 7.292-4.671 13.787-12.03 13.787z" fill="#ffb09e"/><path d="m220.38 456.43v34.185c0 3.526-2.859 6.385-6.385 6.385h-154.91c-3.526 0-6.385-2.859-6.385-6.385v-34.185l83.84-8.263z" fill="#80d261"/><path d="m192.38 456.43v34.185c0 3.526-2.859 6.385-6.385 6.385h28c3.526 0 6.385-2.859 6.385-6.385v-34.185l-15.72-4.766z" fill="#4fc123"/><path d="m231.61 418.4v28.12c0 5.47-4.43 9.91-9.9 9.91h-170.34c-5.47 0-9.9-4.44-9.9-9.91v-28.12c0-5.47 4.43-9.9 9.9-9.9h170.34c5.47 0 9.9 4.43 9.9 9.9z" fill="#fef6ad"/><path d="m221.71 408.5h-25.5c5.47 0 9.9 4.43 9.9 9.9v28.12c0 5.47-4.43 9.91-9.9 9.91h25.5c5.47 0 9.9-4.44 9.9-9.91v-28.12c0-5.47-4.43-9.9-9.9-9.9z" fill="#fef056"/><path d="m444.3 456.43v34.185c0 3.526-2.859 6.385-6.385 6.385h-154.91c-3.526 0-6.385-2.859-6.385-6.385v-34.185l90.88-4.766z" fill="#80d261"/><path d="m416.18 456.43v34.185c0 3.526-2.859 6.385-6.385 6.385h28.12c3.526 0 6.385-2.859 6.385-6.385v-34.185l-15.725-4.766z" fill="#4fc123"/><g fill="#ffcebf"><path d="m488.36 190.72v113.29c0 7.75-2.5 15.3-7.11 21.52l-23.33 31.45c-8.85 11.93-13.62 26.39-13.62 41.24v58.21h-167.68v-265.71z"/><path d="m419.787 297.432h68.565v-143.984c0-13.433-10.89-24.323-24.323-24.323-12.16 0-22.451 8.98-24.099 21.027z"/><path d="m488.36 190.72v113.29c0 7.75-2.5 15.3-7.11 21.52l-23.33 31.45c-8.85 11.93-13.62 26.39-13.62 41.24v58.21h-167.68v-265.71h157.76l5.55-40.57c.82-6.03 3.81-11.28 8.11-15.03.62-.54 1.26-1.05 1.93-1.52 3.99-2.84 8.85-4.48 14.06-4.48 13.43 0 24.32 10.89 24.32 24.33v37.27z"/></g><path d="m488.35 190.72v-37.27c0-13.44-10.89-24.33-24.32-24.33-5.21 0-10.07 1.64-14.06 4.48 6.21 4.4 10.26 11.65 10.26 19.85v37.27h.01v113.29c0 7.75-2.5 15.3-7.11 21.52l-23.33 31.45c-8.85 11.93-13.62 26.39-13.62 41.24v58.21h28.12v-58.21c0-14.85 4.77-29.31 13.62-41.24l23.33-31.45c4.61-6.22 7.11-13.77 7.11-21.52v-113.29z" fill="#ffb09e"/><path d="m455.53 418.4v28.12c0 5.47-4.44 9.91-9.91 9.91h-170.33c-5.47 0-9.9-4.44-9.9-9.91v-28.12c0-5.47 4.43-9.9 9.9-9.9h170.33c5.47 0 9.91 4.43 9.91 9.9z" fill="#fef6ad"/><path d="m445.62 408.5h-26.95c5.46 0 9.9 4.43 9.9 9.9v28.12c0 5.47-4.44 9.91-9.9 9.91h26.95c5.47 0 9.91-4.44 9.91-9.91v-28.12c0-5.47-4.44-9.9-9.91-9.9z" fill="#fef056"/><path d="m375.42 255.73-102.47 102.48c-10.41 10.41-25.81 12.79-38.51 7.14-.18-.07-.36-.16-.54-.24-3.56-1.66-6.91-3.96-9.85-6.9l-102.47-102.48c-35.21-35.2-36.23-92.57-1.28-128.04 31.72-32.19 81.54-35.52 117.01-9.99 6.66 4.79 15.71 4.79 22.38 0 11.31-8.14 24.08-13.35 37.25-15.63.45-.08.89-.15 1.34-.22 27.75-4.36 57.15 4.26 78.41 25.84 34.95 35.47 33.94 92.84-1.27 128.04z" fill="#fb2b3a"/><path d="m347.3 255.73-102.47 102.48c-3.09 3.09-6.62 5.48-10.39 7.14-.18-.07-.36-.16-.54-.24-3.56-1.66-6.91-3.96-9.85-6.9l-102.47-102.48c-35.21-35.2-36.23-92.57-1.28-128.04 31.72-32.19 81.54-35.52 117.01-9.99 6.66 4.79 15.71 4.79 22.38 0 11.31-8.14 24.08-13.35 37.25-15.63.45-.08.89-.15 1.34-.22 18.44 2.88 36.16 11.5 50.3 25.84 34.95 35.47 33.93 92.84-1.28 128.04z" fill="#fd4755"/><path d="m430.194 165.981c-4.105-.558-7.885 2.311-8.447 6.414l-16.718 122.245c-.562 4.104 2.311 7.886 6.415 8.447.345.047.687.07 1.025.07 3.691 0 6.907-2.726 7.421-6.484l16.719-122.244c.561-4.105-2.311-7.886-6.415-8.448z" fill="#ffb09e"/></g></svg>